<svg width="202" height="244" viewBox="0 0 202 244" fill="none" xmlns="http://www.w3.org/2000/svg">
<g clip-path="url(#clip0_35_24348)">
<path fill-rule="evenodd" clip-rule="evenodd" d="M202 71.7477C181.081 56.4716 155.3 47.4545 127.415 47.4545V0L43.3231 79.4248C17.25 102.607 0.829102 136.388 0.829102 174C0.829102 199.882 8.6046 223.951 21.9475 244H90.5521C65.4292 230.749 48.2986 204.372 48.2986 174C48.2986 130.377 83.725 94.9091 127.415 94.9091C161.829 94.9091 191.116 116.883 202 147.559V71.7477ZM202 200.433C197.541 213 189.996 224.108 180.282 232.844L168.472 244H177C190.807 244 202 232.807 202 219V200.433Z" fill="#F1F1F1"/>
<path d="M127.415 199.045C141.251 199.045 152.468 187.832 152.468 174C152.468 160.168 141.251 148.955 127.415 148.955C113.578 148.955 102.361 160.168 102.361 174C102.361 187.832 113.578 199.045 127.415 199.045Z" fill="#F1F1F1"/>
</g>
<defs>
<clipPath id="clip0_35_24348">
<rect width="202" height="244" fill="white"/>
</clipPath>
</defs>
</svg>
